<!-- assets/hexagon.svg -->
<svg width="100" height="87" viewBox="0 0 100 87" xmlns="http://www.w3.org/2000/svg">
  <defs>
    <filter id="glow">
      <feGaussianBlur stdDeviation="4" result="blurred"/>
      <feMerge>
        <feMergeNode in="blurred"/>
        <feMergeNode in="SourceGraphic"/>
      </feMerge>
    </filter>
  </defs>

  <!-- outer border -->
  <polygon
    points="50,0 96.65,25 96.65,62 50,87 3.35,62 3.35,25"
    fill="#1b1f24"
    stroke="#0e2b3a"
    stroke-width="8"
  />

  <!-- inner background -->
  <polygon
    points="50,8 90,30 90,56 50,78 10,56 10,30"
    fill="#0f3d4a"
    stroke="none"
  />

  <!-- spiral dark (moved up 6.5px) -->
  <path
    d="M50,13.5 C65,13.5 80,28.5 80,43.5 S65,73.5 50,73.5 20,58.5 20,43.5 35,13.5 50,13.5 Z"
    fill="#17b6cf"
  />

  <!-- spiral light (moved up 6.5px) -->
  <path
    d="M50,23.5 C60,23.5 70,33.5 70,43.5 S60,63.5 50,63.5 30,53.5 30,43.5 40,23.5 50,23.5 Z"
    fill="#1fd2eb"
  />
</svg>
